<svg version="1.2" xmlns="http://www.w3.org/2000/svg" viewBox="0 0 1080 494" width="1080" height="494">
	<title>logo</title>
	<defs>
		<linearGradient id="g1" x2="1" gradientUnits="userSpaceOnUse" gradientTransform="matrix(52.868,0,0,17.551,356.381,314.58)">
			<stop offset=".359" stop-color="#f5dc8d"/>
			<stop offset=".515" stop-color="#f4d07b"/>
			<stop offset=".611" stop-color="#f3c66d"/>
			<stop offset=".923" stop-color="#c58a2b"/>
			<stop offset="1" stop-color="#b97a2a"/>
		</linearGradient>
		<linearGradient id="g2" x2="1" gradientUnits="userSpaceOnUse" gradientTransform="matrix(479.074,0,0,367.973,21.605,63.085)">
			<stop offset="0" stop-color="#b97a2a"/>
			<stop offset=".175" stop-color="#d09b2d"/>
			<stop offset=".392" stop-color="#eac05c"/>
			<stop offset=".5" stop-color="#f5d070"/>
			<stop offset=".608" stop-color="#eac05c"/>
			<stop offset=".825" stop-color="#d09b2d"/>
			<stop offset="1" stop-color="#b97a2a"/>
		</linearGradient>
		<linearGradient id="g3" x2="1" gradientUnits="userSpaceOnUse" gradientTransform="matrix(52.868,0,0,17.466,113.112,314.58)">
			<stop offset=".359" stop-color="#f5dc8d"/>
			<stop offset=".515" stop-color="#f4d07b"/>
			<stop offset=".611" stop-color="#f3c66d"/>
			<stop offset=".923" stop-color="#c58a2b"/>
			<stop offset="1" stop-color="#b97a2a"/>
		</linearGradient>
		<linearGradient id="g4" x2="1" gradientUnits="userSpaceOnUse" gradientTransform="matrix(473.841,0,0,112.386,578.213,147.854)">
			<stop offset="0" stop-color="#b97a2a"/>
			<stop offset=".175" stop-color="#d09b2d"/>
			<stop offset=".392" stop-color="#eac05c"/>
			<stop offset=".5" stop-color="#f5d070"/>
			<stop offset=".608" stop-color="#eac05c"/>
			<stop offset=".825" stop-color="#d09b2d"/>
			<stop offset="1" stop-color="#b97a2a"/>
		</linearGradient>
	</defs>
	<style>
		tspan { white-space:pre } 
		.s0 { fill: url(#g1) } 
		.s1 { fill: url(#g2) } 
		.s2 { fill: url(#g3) } 
		.s3 { fill: url(#g4) } 
		.s4 { fill: #fefefe } 
		.t5 { font-size: 27px;fill: #777f7e;font-weight: bold;font-family: "Gotham" } 
	</style>
	<g id="Layer 1">
		<g id="&lt;Group&gt;">
			<path id="&lt;Path&gt;" class="s0" d="m402.2 330.8c-1.5-0.4-3-0.7-4.6-1.3-0.6-0.2-1.4-0.3-2.1-0.7-2-0.9-4.2-1.9-5.6-3.6l-1.1-1.4c-0.4-0.7-0.9-1-1.4-1.4-1-0.8-2.1-1.4-3.2-1.9-4.4-2.1-9.2-3.2-13.8-4.1-4.7-0.9-9.4-1.6-14.2-1.8 2.3 0.5 4.6 0.9 7 1.4l6.9 1.5c4.5 1.2 9.2 2.4 13.3 4.4 1 0.5 2.1 1 2.9 1.6 0.3 0.4 0.7 0.7 1 1.2l1.1 1.5c1.9 1.8 4.2 3 6.4 3.7 0.6 0.3 1.3 0.4 1.9 0.5 4 1.2 8.1 1.6 12.3 1.7-2.1-0.4-4.4-0.8-6.8-1.3z"/>
			<path id="&lt;Compound Path&gt;" fill-rule="evenodd" class="s1" d="m499.1 120.1c-1.4 13.3-3.7 26.6-7.5 39.5-3.7 12.9-8.7 25.5-15.3 37.2-6.7 11.8-14.8 22.7-24.6 32.1-9.7 9.5-21.2 17-33.3 23l-3.5 1.6c-5 2.1-10.2 4.2-15.4 5.8-6.4 2.1-13 3.8-19.6 5-6.9 1.3-13.9 2.2-21 2.8-19.9 1.7-39.9 0.7-59.5-1.9 19.8 2.2 39.8 2.8 59.5 0.7 7-0.7 13.8-1.8 20.6-3.2q9.9-2.1 19.4-5.4c5.4-1.9 10.8-4.1 16-6.6 0.9-0.4 1.7-0.8 2.4-1.2 11.9-6 22.9-13.8 32.3-23 9.4-9.2 17.5-19.8 24-31.3 6.4-11.5 11.5-23.9 15.1-36.6 3.6-12.8 6-25.8 7.3-39 1.2-12.1 1.6-24.4 0.8-36.4l-0.2 0.2c-8.2 17.8-18.1 34.7-29.1 50.9-11.8 17.3-25.3 33.5-40.2 48.2-7.2 6.9-15 13.4-23 19.6-0.2 0.3-0.6 0.6-1 0.9-8.5 6.2-17.4 11.9-26.9 16.8l-7 3.6c-2.5 1.2-5 2.2-7.4 3.2-1.3 0.5-2.5 1-3.7 1.5l-3.3 1.2-0.5 0.3-3.7 1.2c-1.2 0.5-2.5 0.9-3.8 1.3l-7.7 2.2c-2.6 0.8-5.3 1.1-7.9 1.8l-3.8 0.9c-1.3 0.2-2.8 0.4-4 0.6l-8 1.2c-1.7 0.2-3.4-0.9-3.7-2.7-0.2-1.7 0.9-3.3 2.8-3.6h0.3l7.7-0.9c1.2-0.3 2.5-0.3 3.8-0.5l3.8-0.8c2.5-0.5 5.1-0.9 7.6-1.5l7.5-1.9c1.2-0.4 2.5-0.8 3.7-1.2l3.6-1.1 0.8-0.3 3-0.9c1.2-0.4 2.4-0.9 3.6-1.4 2.4-1 4.9-1.9 7.2-2.9l7-3.4c9.2-4.6 18.1-9.8 26.7-15.8 0.6-0.5 1.2-0.9 1.9-1.4 7.7-5.6 15.2-11.6 22.3-18.2 15.2-14.2 29-29.9 41.2-46.8 11.2-15.8 21.5-32.3 30-49.8-7.3 6.2-15.1 12-22.9 17.5-4.6 3.2-9.2 6.1-13.7 9.1-4.7 2.9-9.2 5.8-13.9 8.5-18.9 11-38.4 21-58.4 29.8-4.9 2.2-9.6 4.2-14.5 6.3-0.2 0.1-0.4 0.1-0.6 0.2l-7.4 3.2-7.4 3.5c-9.8 4.7-19.1 10.2-27.7 16.6-1.6 1.2-3 2.4-4.5 3.6-6.9 5.5-13.2 11.6-18.9 18.4-6.8 8.2-12.5 17.4-16.6 27.2-4.3 9.8-6.9 20.2-7.8 30.9-0.1 2.6-0.2 5.2-0.2 8-0.1 2.6 0.1 5.2 0.5 7.8 0.8 5.2 2.2 10.5 3.9 15.5 4 11.6 9.6 22.5 16.5 32.7 4.2 6.1 9.4 12.8 15.5 19.8 8 9.5 17.8 19.6 29.6 30.3 2.1 1.8 4.3 3.6 6.4 5.4l0.2 0.3 3.9 3.1c0.1-2.1 0.2-4.4 0.2-6.6 0-0.8 0.2-1.5 0.2-2.3 0-3.5 0-6.9-0.2-10.4-0.3-6.9-1-13.9-3.1-20.5 2.4 6.5 3.3 13.5 3.9 20.4 0.3 3.5 0.4 7 0.5 10.5v1.3c0.2 2.9 0.2 6 0 8.9l0.9 0.7 3.3 2.5 3.2 2.5c15.4 11.6 31.5 22.4 48.1 32.3q0.3 0.4 0.7 0.8c-0.8-1.6-1.6-3.2-2.4-4.8-1.5-3.5-2.8-7.1-4-10.8-2.2-7.4-3.5-15.1-3.7-22.8q-0.2-5.7 0.4-11.5c0.4-3.8 1.1-7.7 1.7-11.4 1.1-7.4 1.6-14.9 1.5-22.4-0.1-7.4-1-14.9-3.2-21.9-0.3-1.1-0.5-2-0.9-2.9-2.2-6-5.6-11.5-10.3-15.7-5.5-4.8-12.6-7.9-19.8-9.2-6.3-1.1-12.9-1.3-19.3-0.6l-3.1 0.4c-3.8 0.5-7.5 1.1-11.1 1.9l-1.4 0.2c-0.6 0.2-1.1 0.3-1.3 0.4-0.8 0.3-1.5 0.5-1.8 1-0.9 0.8-1.2 2.3-0.9 4 0.3 3.3 2 6.8 3.8 10 1.6 2.5 3.4 5.1 5.2 7.5 0.5 0.5 0.9 1.2 1.3 1.7 2.4 2.9 4.5 6.2 6.3 9.7q1.4 2.7 2.3 5.4c0.1 0.5 0.3 0.9 0.4 1.4 0.1 0.5 0.3 1 0.4 1.3 0.3 0.7 0.8 1.5 1.3 2.1 2.3 2.7 5.3 5.3 8.1 7.7 2.8 2.6 5.8 5 8.7 7.5 1.9 1.8 3.7 3.6 5.5 5.5 0.9 0.9 1.7 1.8 2.5 2.9 1.1 1.5 2.1 3 3 4.8 1 1.7 1.5 3.6 1.5 5.6 0.1 7.5 2.7 14.9 6.2 21.5 3.4 6.7 7.7 12.9 12.5 18.9 3 3.6 5.9 7.2 9 10.8-3.3-3.4-6.4-7-9.4-10.6-4.8-6-9.2-12.2-12.8-19-3.5-6.6-6.3-13.9-6.4-21.7 0-3.6-2.2-6.9-4.6-9.8-0.6-0.9-1.5-1.8-2.3-2.7-1.8-1.9-3.7-3.7-5.6-5.4-2.9-2.5-5.9-4.9-8.8-7.3-3-2.4-6.1-4.8-8.7-7.8-0.6-0.7-1.3-1.6-1.6-2.7-0.3-0.5-0.4-1-0.6-1.4-0.1-0.4-0.2-0.9-0.3-1.2q-1-2.5-2.4-5c-1.6-3.2-3.8-6.4-6.2-9.2-0.1-0.3-0.3-0.7-0.6-0.9-2.2-2.7-4.4-5.5-6.2-8.5-1-1.6-2.1-3.3-2.8-5.1-0.8-1.8-1.6-3.7-1.8-5.9-0.2-1-0.2-2.1 0.1-3.3 0.2-1.1 0.8-2.4 1.7-3.3 0.9-0.9 2-1.6 3.1-1.9 0.6-0.3 1-0.3 1.5-0.4l1.4-0.3c3.9-0.7 7.6-1.4 11.5-1.9l4.3-0.4c6.3-0.4 12.7-0.4 19.1 0.8 7.7 1.4 15.3 4.6 21.2 10 4.3 3.8 7.5 8.7 9.9 13.8 0.9 1.9 1.6 4.1 2.3 6.1 2.4 7.4 3.3 15.2 3.5 22.9 0.1 7.7-0.6 15.3-1.6 22.9-0.5 3.8-1.2 7.5-1.5 11.2q-0.6 5.6-0.4 11.2c0.2 7.4 1.4 14.8 3.6 21.9 1 3.6 2.3 7.1 3.9 10.5 1.5 3.5 3.2 6.8 5.2 9.7l4 5.8c0.2 0 0.2 0.1 0.3 0.1q-0.1 0-0.3-0.1l-0.2-0.1c-4.4-2.2-40.5-20.6-76.8-48.7-8 5.3-16.7 9.9-26.2 13.8-18.7 7.6-39.6 11.6-61.9 11.6-11.5 0-22.6-1-33.1-3.1-10.1-1.9-19.6-4.8-28.7-8.5-9.3-3.9-18-8.5-26.2-13.7-36.2 28.1-72.3 46.5-76.7 48.7l-0.3 0.1q-0.1 0.1-0.2 0.2c0.1-0.1 0.1-0.2 0.2-0.2l4-5.7c1.9-3 3.8-6.4 5.3-9.7 1.6-3.5 2.8-6.9 3.9-10.5 2.2-7.2 3.3-14.6 3.6-22q0.2-5.6-0.4-11.1c-0.3-3.7-1-7.5-1.5-11.3-1.1-7.5-1.7-15.2-1.6-22.9 0.3-7.6 1.2-15.4 3.5-22.9 0.6-2 1.5-4.2 2.4-6.2 2.4-5 5.6-9.7 9.8-13.6 6-5.4 13.6-8.5 21.3-10 6.6-1.1 13.2-1.1 19.8-0.6 1.3 0.1 2.4 0.3 3.6 0.4 3.8 0.4 7.6 1.1 11.5 1.9l1.4 0.3c0.5 0.1 0.9 0.1 1.5 0.3q1.8 0.6 3.1 2c0.9 0.9 1.4 2.1 1.7 3.3 0.3 1.1 0.3 2.3 0.1 3.3-0.2 2.2-1 4.1-1.8 5.9-0.9 1.8-1.8 3.4-2.8 5.1-1.7 2.7-3.6 5.4-5.7 7.8-0.5 0.5-0.9 1-1.3 1.5q-3.5 4.3-6.2 9.2-1.3 2.3-2.3 5c-0.1 0.4-0.3 0.9-0.4 1.3-0.1 0.4-0.2 0.8-0.5 1.4-0.4 1.2-1 1.9-1.7 2.7-2.7 3.1-5.7 5.4-8.6 7.8-3 2.4-6 4.9-8.8 7.3-1.9 1.8-4 3.6-5.8 5.5-0.8 0.8-1.5 1.5-2.2 2.4-2.3 2.8-4.4 6.2-4.5 9.9-0.1 7.6-3 14.9-6.5 21.7-3.4 6.8-8 13-12.7 18.9-3.4 4.1-7 8.1-10.7 11.9 16.7-10 33-20.8 48.5-32.6l3.2-2.4 3.2-2.6 0.9-0.6v-10.2c0-3.6 0.3-7.1 0.5-10.5 0.7-6.9 1.6-13.8 3.9-20.5-2.1 6.7-2.7 13.7-3.1 20.6-0.1 3.5-0.1 6.9-0.1 10.4 0 0.8 0.1 1.6 0.1 2.4 0.1 2.2 0.1 4.3 0.3 6.5l3.8-3.2 0.2-0.1c2-1.9 4.2-3.7 6.3-5.5 12.1-11.1 22.2-21.5 30.3-31.1 5.7-6.8 10.6-13.2 14.7-19 6.9-10.3 12.5-21.3 16.5-32.8 1.8-5.1 3.1-10.2 3.9-15.4 0.4-2.6 0.6-5.3 0.5-7.8 0-2.9 0-5.4-0.2-8.1-0.9-10.6-3.7-21-7.8-30.8-4.1-9.9-9.9-18.9-16.6-27.2-5.7-6.9-12.2-13.1-19.1-18.7-1.4-1.2-2.9-2.3-4.3-3.3-8.6-6.4-18-11.9-27.7-16.7q-3.7-1.9-7.4-3.4l-6.9-2.9-0.5-0.3c-5.1-2-10.1-4.2-15.1-6.4-20-8.8-39.5-18.7-58.4-29.8-4.6-2.8-9.2-5.7-13.9-8.6-4.6-2.9-9.1-5.8-13.7-9-7.8-5.5-15.6-11.2-22.9-17.5 8.5 17.3 18.7 34 30 49.7 12.2 17 26 32.7 40.9 46.8 7.4 6.6 15.1 13 23.3 18.8 0.3 0.2 0.6 0.5 1 0.7 8.5 6.1 17.4 11.3 26.7 15.9l7 3.3c2.4 1 4.7 1.9 7.2 3 1.1 0.5 2.4 1 3.6 1.4l3.2 1 0.5 0.1 3.6 1.2c1.3 0.5 2.5 0.9 3.8 1.1l7.5 1.9c2.5 0.7 5 1.1 7.6 1.6l4 0.9c1.3 0.2 2.6 0.4 3.8 0.5l7.7 0.9h0.2c1.8 0.2 3.1 1.8 2.9 3.6-0.3 1.7-1.8 3-3.7 2.8h-0.1l-8-1.2c-1.4-0.2-2.7-0.4-4-0.6l-3.9-0.9c-2.7-0.7-5.2-1-7.8-1.8l-7.8-2.2c-1.3-0.4-2.4-0.7-3.7-1.3l-3.7-1.2-0.3-0.2-3.5-1.2c-1.3-0.6-2.4-1.1-3.7-1.6-2.5-1-4.9-2-7.4-3.2l-7.1-3.6c-9.4-4.9-18.4-10.4-26.8-16.8l-0.3-0.3c-8.2-6.4-16.2-13.2-23.7-20.3-15.1-14.7-28.5-31-40.3-48.2-11-16.1-20.9-33.1-28.9-50.9l-0.2-0.3c-0.8 12.2-0.4 24.5 0.8 36.5 1.3 13.2 3.6 26.2 7.3 38.9 3.6 12.6 8.7 25 15.1 36.5 6.5 11.5 14.5 22.1 24 31.3 9.6 9.2 20.4 17 32.3 23.1 1 0.5 1.9 0.9 2.9 1.4 4.9 2.4 10.1 4.4 15.4 6.4q9.5 3.2 19.3 5.3c7.1 1.6 14.2 2.6 21.3 3.3 19.5 2.1 39.4 1.6 58.8-0.6-19.4 2.6-39.2 3.6-58.8 1.9-7.2-0.6-14.4-1.5-21.7-2.9-6.5-1.3-13.1-3-19.6-5-5-1.7-9.9-3.5-14.8-5.6-1.3-0.5-2.7-1.2-4-1.8-12.1-6-23.6-13.6-33.3-23-9.8-9.5-18-20.4-24.6-32.1-6.6-11.8-11.6-24.3-15.4-37.2-3.7-12.9-6.2-26.2-7.5-39.5-1.1-12.6-1.6-25.2-0.7-37.9l1.1-19.4c33.7 37.8 79.8 57.4 101 67.4 7 3.4 20.4 8.3 36 15.6 11.6-9.8 24.9-17.7 39.8-23.8 18.7-7.7 39.6-11.7 61.9-11.7 10.8 0 21.3 1.1 31.3 2.9 10.6 2 20.8 4.9 30.4 8.9 14.5 6.1 27.7 13.9 39.3 23.4 15.2-7 28.3-11.8 35.2-15.1 21.3-10.2 67.4-29.8 101-67.6l1.2 19.4q1.2 19-1.2 37.6zm-83.7 300.6q-0.4-0.5-0.9-1 0.6 0.6 1.3 1.3-0.2-0.2-0.4-0.3zm-319.5 10.4q0 0 0 0 0 0 0 0zm330.6-0.2q0 0 0 0 0 0 0 0zm-320.5-9.9c3.8-4 7.4-8.1 10.8-12.3 4.6-5.9 9-12.2 12.5-18.9 3.5-6.7 6.2-14 6.2-21.5 0-1.9 0.6-3.9 1.4-5.6 0.8-1.7 1.9-3.4 3.1-4.9 0.6-0.9 1.4-1.8 2.2-2.7 1.8-1.9 3.7-3.8 5.6-5.6 2.9-2.6 5.9-5.1 8.7-7.6 2.8-2.4 5.8-4.8 8.1-7.6 0.5-0.8 1-1.4 1.3-2.2 0.1-0.3 0.3-0.8 0.4-1.3 0.1-0.5 0.3-0.9 0.4-1.4q0.9-2.7 2.3-5.4c1.8-3.4 3.9-6.6 6.3-9.7 0.7-0.7 1.2-1.5 1.8-2.3 1.7-2.3 3.3-4.5 4.7-6.9 1.8-3.2 3.3-6.6 3.8-10 0.3-1.5 0-3-0.9-3.9-0.5-0.4-1.1-0.8-1.8-1-0.2-0.2-0.9-0.3-1.3-0.4l-1.4-0.3c-3.6-0.7-7.3-1.4-11.1-1.9-0.7-0.1-1.5-0.1-2.3-0.3-6.7-0.6-13.4-0.6-20 0.6-7.3 1.2-14.3 4.2-19.7 9.2-4.7 4.2-8.2 9.7-10.3 15.7-0.4 0.9-0.8 1.9-1.1 2.8-2.2 7-3.1 14.6-3.2 22-0.1 7.4 0.5 15 1.5 22.4 0.7 3.7 1.3 7.5 1.7 11.3q0.6 5.8 0.4 11.6c-0.2 7.6-1.5 15.3-3.7 22.7-1.1 3.7-2.5 7.3-4 10.9-0.8 1.5-1.6 3.1-2.4 4.5zm209.9-246.7c-4.9-3.2-9.9-6-15.3-8.4q-8.5-3.7-17.8-5.8-10.5-2.3-21.7-2.3c-14.4 0-27.9 2.6-39.7 7.8-5.4 2.3-10.5 5.1-15.2 8.3 25.4 20.9 46 50.5 44.6 93.8-0.9 28.3-17.2 55.2-38.8 78.7 3.2 2.1 6.7 3.9 10.2 5.4 5.1 2.4 10.5 4.2 16.2 5.5 7.5 1.8 15.2 2.7 23.5 2.7 14.2 0 27.5-2.6 39.5-7.8 3.3-1.4 6.5-3.1 9.6-4.9-21.9-23.6-38.5-50.7-39.4-79.4-1.5-42.9 19.1-72.6 44.3-93.6z"/>
			<path id="&lt;Path&gt;" class="s2" d="m127.2 329.9c2.3-0.7 4.5-1.8 6.3-3.7l1.2-1.5c0.2-0.4 0.6-0.8 1-1.2 0.9-0.6 1.8-1.2 2.9-1.6 4.1-2 8.7-3.2 13.2-4.4q3.5-0.9 7-1.5c2.3-0.5 4.7-1 7-1.4-4.8 0.2-9.4 0.9-14.2 1.8-4.7 0.9-9.3 2-13.8 4.1-1 0.5-2.2 1.1-3.2 1.9-0.6 0.4-1.1 0.9-1.5 1.4l-1 1.4c-1.4 1.7-3.6 2.7-5.7 3.6-0.7 0.2-1.4 0.5-2.2 0.7-1.5 0.6-2.9 0.9-4.5 1.3-2.3 0.5-4.6 0.9-6.9 1.3 4 0 8.1-0.5 12-1.5 1-0.3 1.8-0.4 2.4-0.7z"/>
			<path id="&lt;Compound Path&gt;" fill-rule="evenodd" class="s3" d="m622.8 162.9c1.2 3 1.9 6.3 1.9 9.8v0.1c0 3.4-0.7 6.8-2 9.7-1.1 2.9-3.1 5.5-5.4 7.7-2.3 2.1-5.3 3.8-8.8 5.1-3.5 1.1-7.3 1.8-11.7 1.8h-18.6v-48.5h18.8c4.4 0 8.3 0.7 11.8 1.8 3.3 1.2 6.3 2.8 8.6 5 2.4 2.2 4.2 4.7 5.4 7.5zm-15.7 0.9c-2.4-2.1-5.7-3.2-9.8-3.2h-5.5v24.7h5.5c4 0 7.4-1 9.8-3.2 2.5-2.2 3.8-5.1 3.8-9.1 0-4-1.3-7-3.8-9.2zm24.8-15.1h13.7v48.5h-13.7zm68.9 20.2v21.9q-3.9 3.2-9.3 5.3c-3.5 1.4-7.6 2.2-12 2.2-3.9 0-7.4-0.6-10.6-1.8-3.2-1.3-6.1-2.9-8.4-5.1-2.3-2.2-4.2-4.8-5.5-7.9-1.3-3.1-2.1-6.4-2.1-10.1v-0.4c0-3.5 0.7-6.8 1.9-9.8q2-4.6 5.5-8.1c2.3-2.3 5.1-4.1 8.3-5.4 3.3-1.2 6.8-1.9 10.6-1.9q6.6 0 11.2 1.9c3.1 1.3 6.1 3 8.7 5.3l-8 9.4c-1.8-1.5-3.6-2.5-5.4-3.4-1.8-0.8-4-1.2-6.5-1.2-1.8 0-3.3 0.4-4.9 1.1-1.5 0.6-2.8 1.6-4 2.8q-1.7 1.7-2.7 4.2c-0.6 1.6-1 3.3-1 5.2v0.2c0 1.9 0.4 3.7 1 5.3q1 2.5 2.7 4.2c1.2 1.2 2.6 2.1 4.3 2.9 1.7 0.6 3.3 1 5.4 1 3.2 0 5.8-0.7 7.9-2.1v-5.8h-9.7v-9.9zm7.7-20.2h13.7v48.5h-13.7zm19.9 0h43v11.7h-14.7v36.7h-13.6v-36.7h-14.7zm78.8-0.4l20.9 48.9h-14.6l-3.6-8.7h-18.8l-3.5 8.7h-14.2l20.8-48.9zm-1.2 29.8l-5.4-13.8-5.5 13.8zm40.3 7.3h23.8v11.8h-37.3v-48.5h13.5zm-228.6 62.4v11.4h-39.6v-48.5h39.4v11.4h-26.1v7.3h23.5v10.6h-23.5v7.8zm36.3-13.3l16.8 24.8h-15.7l-9.4-14.5-9.4 14.5h-15.2l16.8-24.6-16.2-23.8h15.6l8.7 13.7 8.8-13.7h15.3zm56.9 7.5l10.2 7.2c-1.2 1.5-2.5 3-3.9 4.3-1.4 1.3-2.9 2.6-4.6 3.5-1.8 1-3.8 1.8-6 2.3-2.2 0.5-4.6 0.9-7.3 0.9-3.5 0-6.9-0.7-9.8-1.9-3.1-1.3-5.8-3-8-5.3-2.3-2.3-4-4.8-5.4-7.9q-2-4.6-2-10v-0.1c0-3.5 0.7-6.8 2-9.9q1.9-4.6 5.4-8 3.5-3.5 8.1-5.4c3.1-1.3 6.6-1.9 10.3-1.9 2.6 0 4.8 0.3 6.9 0.8 2 0.5 3.8 1.1 5.6 2 1.7 0.9 3.3 1.9 4.7 3.2 1.4 1.3 2.6 2.6 3.6 4.1l-10.2 7.8q-2.1-2.7-4.6-4.2c-1.7-1-3.8-1.6-6.1-1.6-1.7 0-3.4 0.4-4.8 1.1-1.4 0.6-2.7 1.5-3.6 2.6-1 1.2-1.8 2.6-2.4 4.1-0.7 1.6-0.9 3.2-0.9 5v0.2c0 1.7 0.2 3.4 0.9 5.1 0.6 1.5 1.4 2.9 2.4 4.1 1 1.1 2.2 2 3.6 2.6 1.4 0.7 3 1.1 4.8 1.1q1.9 0 3.5-0.4c1-0.3 2.1-0.7 2.8-1.2 0.9-0.5 1.7-1.1 2.5-1.9q1.3-0.9 2.3-2.3zm29.4 5.8h26.3v11.3h-39.7v-48.4h39.3v11.4h-25.9v7.3h23.5v10.6h-23.5zm46.8-0.4h23.8v11.7h-37.3v-48.4h13.5zm43.1 0h23.8v11.8h-37.3v-48.5h13.5zm69.2 0.4v11.4h-39.6v-48.5h39.3v11.4h-25.9v7.3h23.5v10.6h-23.5v7.8zm39.9-37.1h13.4v48.5h-11.9l-20.9-26.6v26.6h-13.4v-48.5h12.6l20.2 25.7zm57.1 31.3l10.2 7.2c-1.2 1.5-2.5 3.1-3.9 4.3-1.4 1.3-2.9 2.6-4.6 3.5-1.8 1-3.8 1.8-6 2.3-2.1 0.5-4.6 0.9-7.3 0.9-3.5 0-6.8-0.7-9.8-1.9-3.1-1.3-5.8-3-8-5.3-2.3-2.3-4-4.8-5.4-7.9q-2-4.6-2-10v-0.1c0-3.5 0.7-6.8 2-9.9q1.9-4.6 5.4-8 3.5-3.5 8.1-5.4c3.1-1.3 6.6-1.9 10.3-1.9 2.6 0 4.8 0.3 6.9 0.8 2 0.5 3.8 1.1 5.6 2 1.7 0.9 3.3 1.9 4.7 3.2 1.4 1.3 2.6 2.6 3.6 4.1l-10.2 7.8q-2.1-2.7-4.6-4.2c-1.7-1-3.8-1.5-6.1-1.5-1.7 0-3.3 0.3-4.8 1-1.4 0.6-2.7 1.5-3.6 2.7-1 1.1-1.8 2.5-2.4 4.1-0.7 1.5-0.9 3.1-0.9 4.9v0.2c0 1.8 0.2 3.4 0.9 5.1 0.6 1.5 1.4 2.9 2.4 4.1 1.1 1.1 2.2 2 3.6 2.7 1.5 0.6 3 1 4.8 1q1.9 0 3.5-0.4c1-0.3 2.1-0.6 2.8-1.2 0.9-0.5 1.7-1.1 2.5-1.9q1.1-0.9 2.3-2.3zm55.6 5.8v11.4h-39.6v-48.5h39.3v11.4h-25.9v7.3h23.5v10.6h-23.5v7.7h26.2z"/>
			<path id="&lt;Compound Path&gt;" fill-rule="evenodd" class="s4" d="m595 272.4h10.3l16.5 38.6h-11.5l-2.8-6.9h-15l-2.7 6.9h-11.2zm9.4 23.5l-4.2-10.8-4.4 10.8z"/>
			<path id="&lt;Path&gt;" class="s4" d="m623 272.6h11.3l6.7 22.3 7.5-22.4h9.3l7.5 22.4 6.7-22.3h11.1l-12.9 38.7h-9.3l-7.7-22.2-7.8 22.2h-9.3z"/>
			<path id="&lt;Compound Path&gt;" fill-rule="evenodd" class="s4" d="m700.8 272.4h10.3l16.5 38.6h-11.5l-2.8-6.9h-15l-2.7 6.9h-11.2zm9.4 23.5l-4.3-10.8-4.3 10.8z"/>
			<path id="&lt;Compound Path&gt;" fill-rule="evenodd" class="s4" d="m731.5 272.6h-0.2zm18.2 0c3 0 5.6 0.4 7.6 1.2q3.1 1.1 5.1 3.1c2.3 2.1 3.5 5.1 3.5 8.9v0.1c0 3-0.8 5.4-2.2 7.3-1.5 1.9-3.4 3.5-5.8 4.5l9.2 13.4h-12.3l-7.8-11.6h-4.7v11.6h-10.8v-38.5zm-0.5 18.5c1.8 0 3.3-0.4 4.3-1.3 1-0.8 1.5-1.9 1.5-3.3v-0.2q0-2.3-1.5-3.4-1.6-1.2-4.3-1.2h-6.9v9.2h6.9z"/>
			<path id="&lt;Compound Path&gt;" fill-rule="evenodd" class="s4" d="m771.1 272.6h14.9c3.5 0 6.6 0.6 9.3 1.4 2.7 0.9 5.1 2.4 6.9 4 1.8 1.7 3.2 3.7 4.2 6 1.1 2.3 1.4 4.9 1.4 7.7v0.1q0 4.2-1.5 7.7-1.6 3.4-4.3 6.1c-1.9 1.7-4.2 3.1-6.9 4.1-2.7 1-5.8 1.4-9.3 1.4h-14.7zm15.1 28.9c3.2 0 5.8-0.9 7.7-2.5 1.9-1.7 3-4.1 3-7.2v-0.1c0-3.1-1.1-5.5-3-7.2-1.9-1.6-4.5-2.5-7.7-2.5h-4.4v19.5z"/>
			<path id="&lt;Path&gt;" class="s4" d="m828.6 311.6c-3.5 0-6.7-0.5-9.9-1.6-3.1-1-6-2.7-8.3-4.9l6-7c3.8 3.1 8 4.6 12.5 4.6 1.4 0 2.6-0.3 3.3-0.7q1.2-0.7 1.2-1.9v-0.1c0-0.4-0.1-0.8-0.3-1-0.1-0.3-0.5-0.7-1-0.9-0.5-0.3-1.2-0.5-1.9-0.9-0.8-0.3-2-0.5-3.3-0.9q-3.1-0.8-5.8-1.5c-1.8-0.5-3.3-1.3-4.6-2.2-1.3-0.9-2.3-2.1-3.1-3.3q-1.2-2-1.2-5c0-1.8 0.4-3.5 1.1-5 0.6-1.5 1.6-2.8 2.9-3.8 1.3-1.2 2.9-2 4.8-2.6 1.8-0.6 3.9-0.9 6.2-0.9 3.3 0 6.3 0.4 8.9 1.3 2.6 0.9 4.9 2.2 7.1 3.8l-5.4 7.6c-1.8-1.3-3.6-2.2-5.4-2.9-1.8-0.6-3.7-1-5.5-1-1.3 0-2.3 0.3-2.9 0.8-0.7 0.5-1.1 1-1.1 1.8v0.1c0 0.4 0.2 0.8 0.3 1.2 0.3 0.3 0.5 0.6 1 0.9 0.5 0.2 1.2 0.5 2.1 0.7 0.9 0.3 1.9 0.5 3.3 0.9 2.2 0.5 4.3 1 6.1 1.7 1.8 0.6 3.4 1.4 4.5 2.3 1.3 0.9 2.2 2 2.9 3.3 0.6 1.3 1 2.8 1 4.6v0.1c0 2-0.4 3.7-1.2 5.3-0.7 1.5-1.8 2.8-3.2 3.9-1.4 1.1-3 2-4.9 2.5q-2.5 0.7-6.2 0.7z"/>
		</g>
		<text id="EMBRACING THE AI REVOLUTION
" style="transform: matrix(1,0,0,1,573.212,342.883)" >
			<tspan x="0" y="0" class="t5">EMBRACING THE AI REVOLUTION
</tspan>
		</text>
	</g>
</svg>